<svg width="112" height="33" viewBox="0 0 112 33" fill="none" xmlns="http://www.w3.org/2000/svg">
<g clip-path="url(#clip0_45_8242)">
<path fill-rule="evenodd" clip-rule="evenodd" d="M24.4509 5.1709H8.23633V14.0875H16.2147C16.4989 14.0875 16.7295 14.3404 16.7295 14.6522V23.2819H24.9657V5.73658C24.9659 5.66234 24.9526 5.5888 24.9268 5.52018C24.901 5.45155 24.8631 5.38919 24.8153 5.33664C24.7675 5.2841 24.7107 5.24242 24.6481 5.21398C24.5856 5.18554 24.5186 5.1709 24.4509 5.1709V5.1709Z" fill="#8E75FF"/>
<path opacity="0.405" fill-rule="evenodd" clip-rule="evenodd" d="M8.23535 5.1709V14.0875H0.628763C0.577655 14.0874 0.527727 14.0707 0.485316 14.0394C0.442906 14.0081 0.409925 13.9637 0.390562 13.9119C0.3712 13.86 0.366327 13.803 0.376564 13.7481C0.386801 13.6931 0.411685 13.6428 0.448057 13.6034L8.23535 5.1709ZM17.1681 31.7237C17.1318 31.7627 17.0859 31.7891 17.0361 31.7996C16.9862 31.8102 16.9346 31.8043 16.8878 31.7828C16.841 31.7613 16.801 31.7251 16.7728 31.6788C16.7446 31.6325 16.7296 31.5781 16.7295 31.5224V23.2819H24.9657L17.1681 31.7226V31.7237Z" fill="#8E75FF"/>
<path opacity="0.405" d="M8.23535 14.0874H16.4725C16.6137 14.0874 16.7295 14.2133 16.7295 14.3692V23.2817H8.75112C8.61458 23.2817 8.48363 23.2222 8.38708 23.1163C8.29053 23.0105 8.23629 22.8668 8.23629 22.7171V14.0874H8.23535Z" fill="#8E75FF"/>
<path fill-rule="evenodd" clip-rule="evenodd" d="M108.02 4.60864C108.48 5.10825 109.023 5.35702 109.65 5.35702C110.297 5.35702 110.85 5.10825 111.31 4.60864C111.77 4.10902 112 3.52064 112 2.84038C112 2.16115 111.77 1.56657 111.31 1.05664C111.096 0.81074 110.838 0.615893 110.553 0.484279C110.267 0.352665 109.96 0.287116 109.65 0.291732C109.023 0.291732 108.48 0.5467 108.02 1.0556C107.56 1.56657 107.33 2.16012 107.33 2.84141C107.33 3.52064 107.56 4.10902 108.02 4.60864V4.60864ZM58.081 11.1242C58.081 11.1759 58.0415 11.2192 57.9935 11.2192H54.7605V17.8463C54.7605 18.3986 54.8885 18.8022 55.1426 19.0572C55.3967 19.3121 55.7695 19.4546 56.2589 19.4866C56.7069 19.5165 57.2527 19.5144 57.8975 19.4814L57.9887 19.4762C58.0005 19.4755 58.0123 19.4775 58.0233 19.4819C58.0344 19.4864 58.0445 19.4933 58.053 19.5022C58.0616 19.5111 58.0684 19.5218 58.073 19.5336C58.0777 19.5455 58.0801 19.5583 58.08 19.5712V23.1129C58.0802 23.1364 58.0723 23.1591 58.0581 23.1766C58.0438 23.1942 58.0242 23.2053 58.0029 23.2079L57.9436 23.2151C55.4118 23.5072 53.6207 23.2357 52.5723 22.4017C51.505 21.5521 50.9723 20.0337 50.9723 17.8463V11.2192H48.5026C48.4797 11.2192 48.4576 11.2092 48.4414 11.1914C48.4252 11.1736 48.416 11.1494 48.416 11.1242V7.36373C48.416 7.31212 48.4546 7.26876 48.5026 7.26876H50.9713V4.6396C50.9713 4.56322 51.0127 4.49509 51.0758 4.46412L54.6391 2.76399C54.6523 2.75742 54.6668 2.7546 54.6813 2.75577C54.6957 2.75694 54.7097 2.76208 54.7219 2.77071C54.734 2.77934 54.744 2.79119 54.751 2.80517C54.7579 2.81914 54.7615 2.8348 54.7615 2.8507V7.26876H57.9935C58.0405 7.26876 58.08 7.31109 58.08 7.36373V11.1242H58.081ZM64.9516 10.0094C65.3036 8.98954 65.8862 8.22464 66.6984 7.7147C67.4997 7.21432 68.4059 6.95108 69.328 6.95083C69.376 6.95083 69.4156 6.99315 69.4156 7.04683V11.3668C69.4155 11.3884 69.4114 11.4098 69.4034 11.4296C69.3953 11.4493 69.3836 11.467 69.369 11.4815C69.3544 11.496 69.3371 11.5069 69.3184 11.5137C69.2997 11.5204 69.2799 11.5228 69.2603 11.5206C68.1676 11.4133 67.1859 11.6744 66.3163 12.3031C65.4062 12.9606 64.9516 14.0548 64.9516 15.5846V23.1036C64.9516 23.1162 64.9493 23.1286 64.9449 23.1402C64.9405 23.1518 64.934 23.1623 64.9259 23.1711C64.9177 23.18 64.9081 23.1869 64.8975 23.1916C64.8869 23.1964 64.8755 23.1987 64.864 23.1986H61.248C61.2251 23.1986 61.2031 23.1886 61.1868 23.1708C61.1706 23.1529 61.1615 23.1288 61.1615 23.1036V7.3627C61.1615 7.31109 61.2 7.26773 61.248 7.26773H64.864C64.9111 7.26773 64.9506 7.31005 64.9506 7.3627V10.0073L64.9516 10.0094ZM82.8678 7.26876C82.8564 7.26863 82.845 7.27098 82.8344 7.2757C82.8238 7.28041 82.8141 7.28738 82.806 7.29621C82.7978 7.30504 82.7914 7.31556 82.787 7.32715C82.7825 7.33874 82.7803 7.35117 82.7803 7.36373V9.14954C81.6452 7.59806 80.049 6.82283 77.9925 6.82283C76.0349 6.82283 74.3549 7.63522 72.9553 9.25999C71.5549 10.8848 70.8546 12.876 70.8546 15.2337C70.8546 17.5913 71.5549 19.5826 72.9553 21.2073C74.3549 22.8321 76.0349 23.6445 77.9925 23.6445C80.049 23.6445 81.6443 22.8693 82.7803 21.3188V23.1036C82.7803 23.1552 82.8198 23.1986 82.8678 23.1986H86.4829C86.5309 23.1986 86.5704 23.1563 86.5704 23.1036V7.3627C86.5704 7.35014 86.5681 7.33771 86.5637 7.32612C86.5593 7.31453 86.5528 7.30401 86.5447 7.29518C86.5366 7.28635 86.5269 7.27937 86.5163 7.27466C86.5057 7.26995 86.4943 7.2676 86.4829 7.26773H82.8678V7.26876ZM75.7902 18.4832C76.5535 19.3121 77.5219 19.7261 78.6984 19.7261C79.873 19.7261 80.8471 19.3059 81.6207 18.4667C82.3944 17.6285 82.7803 16.5508 82.7803 15.2337C82.7803 13.9165 82.3944 12.8388 81.6207 11.9996C80.8471 11.1614 79.873 10.7413 78.6974 10.7413C77.5229 10.7413 76.5535 11.1614 75.7892 12.0006C75.0269 12.8388 74.6438 13.9165 74.6438 15.2337C74.6438 16.5508 75.0259 17.6337 75.7902 18.4832V18.4832ZM103.414 9.25999C102.013 7.63522 100.324 6.82283 98.3464 6.82283C96.2899 6.82283 94.704 7.59806 93.5878 9.14851V7.36373C93.5878 7.33855 93.5787 7.31439 93.5624 7.29658C93.5462 7.27877 93.5242 7.26876 93.5012 7.26876H89.8852C89.8622 7.26876 89.8402 7.27877 89.824 7.29658C89.8077 7.31439 89.7986 7.33855 89.7986 7.36373V29.4747C89.7986 29.5273 89.8372 29.5707 89.8852 29.5707H93.5012C93.5483 29.5707 93.5878 29.5273 93.5878 29.4747V21.3188C94.704 22.8693 96.2899 23.6445 98.3464 23.6445C100.324 23.6445 102.013 22.8321 103.414 21.2073C104.813 19.5826 105.513 17.5913 105.513 15.2337C105.513 12.876 104.813 10.8848 103.414 9.25999V9.25999ZM94.7332 18.4832C95.4975 19.3121 96.4659 19.7261 97.6415 19.7261C98.816 19.7261 99.7902 19.3059 100.564 18.4667C101.337 17.6285 101.724 16.5508 101.724 15.2337C101.724 13.9165 101.337 12.8388 100.564 11.9996C99.7902 11.1614 98.816 10.7413 97.6415 10.7413C96.4659 10.7413 95.4975 11.1614 94.7332 12.0006C93.9699 12.8388 93.5878 13.9165 93.5878 15.2337C93.5878 16.5508 93.9699 17.6337 94.7332 18.4832V18.4832ZM107.857 23.1986C107.834 23.1986 107.812 23.1886 107.796 23.1708C107.78 23.1529 107.77 23.1288 107.77 23.1036V7.3627C107.77 7.31109 107.809 7.26773 107.857 7.26773H111.473C111.521 7.26773 111.56 7.31005 111.56 7.3627V23.1046C111.56 23.1298 111.55 23.154 111.534 23.1718C111.518 23.1896 111.496 23.1996 111.473 23.1996H107.857V23.1986ZM40.2946 12.8285C39.7751 12.5632 39.5163 12.2174 39.5163 11.7932C39.5163 11.3895 39.6772 11.0706 40.001 10.8373C40.3238 10.604 40.7304 10.4863 41.2198 10.4863C42.1582 10.4863 42.8669 10.8837 43.3469 11.6775C43.3629 11.7045 43.387 11.7244 43.415 11.7339C43.4431 11.7433 43.4732 11.7416 43.5003 11.7292L46.6984 10.1942C46.7095 10.1887 46.7193 10.1808 46.7274 10.1709C46.7355 10.161 46.7416 10.1494 46.7454 10.1367C46.7491 10.1241 46.7503 10.1107 46.7491 10.0975C46.7478 10.0843 46.744 10.0715 46.7379 10.06C46.7011 9.99269 46.6634 9.92593 46.625 9.85973C46.0782 8.92554 45.3695 8.22876 44.48 7.69922C43.5012 7.11496 42.4142 6.82283 41.2198 6.82283C39.633 6.82283 38.3069 7.27393 37.2386 8.17715C36.1723 9.07935 35.6386 10.317 35.6386 11.8881C35.6386 12.9297 35.8984 13.7947 36.417 14.4853C36.9182 15.1614 37.5711 15.6829 38.3116 15.9986C39.0551 16.3165 39.7996 16.5828 40.544 16.7944C41.2876 17.0071 41.92 17.2466 42.4386 17.5119C42.9572 17.7772 43.217 18.1219 43.217 18.5472C43.217 19.4608 42.5412 19.917 41.1906 19.917C39.904 19.917 39.0127 19.4009 38.5167 18.3707C38.4968 18.3273 38.4626 18.2938 38.421 18.2771C38.3793 18.2604 38.3335 18.2618 38.2927 18.2809L35.104 19.8138C35.0934 19.8189 35.0838 19.8263 35.0758 19.8356C35.0679 19.8449 35.0617 19.8558 35.0577 19.8677C35.0536 19.8797 35.0518 19.8924 35.0523 19.9051C35.0529 19.9178 35.0557 19.9303 35.0607 19.9418L35.0965 20.0213C36.2109 22.4368 38.2419 23.6445 41.1906 23.6445C42.8744 23.6445 44.2796 23.2037 45.4052 22.3232C46.5318 21.4406 47.0946 20.1823 47.0946 18.5472C47.0946 17.4633 46.8349 16.5612 46.3163 15.8386C45.8274 15.1413 45.1714 14.6067 44.4217 14.2943C43.692 13.9912 42.9465 13.7358 42.1892 13.5294C41.4447 13.3271 40.8132 13.0938 40.2946 12.8275V12.8285Z" fill="#1D1B84"/>
</g>
<defs>
<clipPath id="clip0_45_8242">
<rect width="112" height="32" fill="white" transform="translate(0 0.291504)"/>
</clipPath>
</defs>
</svg>
