<svg width="112" height="33" viewBox="0 0 112 33" fill="none" xmlns="http://www.w3.org/2000/svg">
<g clip-path="url(#clip0_45_8208)">
<path d="M12.129 5.58838V14.6147H3.90462V5.58838H0V27.1351H3.90462V18.4019H12.129V27.1351H16.0336V5.58838H12.129Z" fill="#33475B"/>
<path d="M28.53 20.1702C28.53 21.0337 28.1896 21.8619 27.5839 22.4725C26.9781 23.0831 26.1564 23.4261 25.2997 23.4261C24.443 23.4261 23.6214 23.0831 23.0156 22.4725C22.4098 21.8619 22.0695 21.0337 22.0695 20.1702V10.9414H18.3657V20.1702C18.3657 22.022 19.0956 23.798 20.3947 25.1075C21.6938 26.4169 23.4558 27.1526 25.293 27.1526C27.1303 27.1526 28.8922 26.4169 30.1914 25.1075C31.4905 23.798 32.2203 22.022 32.2203 20.1702V10.9414H28.53V20.1702Z" fill="#33475B"/>
<path d="M55.9714 11.892C55.9714 10.0003 57.213 9.40061 58.5732 9.40061C59.6694 9.40061 61.1176 10.2413 62.0646 11.2614L64.4904 8.38055C63.2794 6.72993 60.823 5.58838 58.8123 5.58838C54.7948 5.58838 51.8888 7.96018 51.8888 11.892C51.8888 19.1867 60.735 16.8727 60.735 20.9549C60.735 22.2141 59.5221 23.3267 58.1332 23.3267C55.9427 23.3267 55.2329 22.2469 54.2266 21.1053L51.5349 23.9264C53.2567 26.0572 55.3802 27.139 57.9246 27.139C61.7413 27.139 64.8118 24.7382 64.8118 20.9858C64.8118 12.887 55.9656 15.4034 55.9656 11.892" fill="#33475B"/>
<path d="M110.697 23.6929C108.508 23.6929 107.887 22.7384 107.887 21.2768V14.8074H111.288V11.5293H107.887V7.2041L104.131 8.90293V22.0809C104.131 25.4515 106.439 27.1503 109.603 27.1503C110.099 27.1595 110.595 27.1194 111.084 27.0308L112 23.6312C111.587 23.6601 111.112 23.6891 110.697 23.6891" fill="#33475B"/>
<path d="M42.6274 11.0495C40.7928 11.0495 39.5129 11.5856 38.2752 12.81V5.71777H34.5657V18.8629C34.5657 23.7839 38.0953 27.1546 42.0612 27.1546C46.4613 27.1546 50.3315 23.7242 50.3315 19.104C50.3315 14.5416 46.7693 11.0514 42.6274 11.0514V11.0495ZM42.6045 23.3925C41.7721 23.3925 40.9583 23.1437 40.2662 22.6775C39.5741 22.2114 39.0346 21.5489 38.7161 20.7737C38.3975 19.9985 38.3142 19.1455 38.4766 18.3226C38.639 17.4997 39.0398 16.7438 39.6284 16.1505C40.217 15.5572 40.967 15.1532 41.7834 14.9895C42.5998 14.8258 43.4461 14.9098 44.2151 15.2309C44.9842 15.552 45.6415 16.0958 46.104 16.7934C46.5664 17.491 46.8133 18.3112 46.8133 19.1503C46.8133 20.2754 46.3699 21.3544 45.5806 22.15C44.7913 22.9455 43.7207 23.3925 42.6045 23.3925Z" fill="#33475B"/>
<path d="M82.9057 18.9071C82.9057 14.2792 79.0431 10.8564 74.6354 10.8564C70.6695 10.8564 67.1399 14.2271 67.1399 19.1481V32.301H70.8494V25.1991C72.0852 26.4216 73.367 26.9596 75.1997 26.9596C79.3416 26.9596 82.9037 23.4713 82.9037 18.9071H82.9057ZM79.3932 18.8608C79.3932 19.6998 79.1464 20.52 78.6839 21.2176C78.2214 21.9153 77.5641 22.459 76.7951 22.7801C76.026 23.1012 75.1798 23.1852 74.3633 23.0215C73.5469 22.8578 72.797 22.4538 72.2084 21.8605C71.6198 21.2672 71.2189 20.5113 71.0565 19.6884C70.8941 18.8655 70.9775 18.0125 71.296 17.2373C71.6146 16.4622 72.154 15.7996 72.8462 15.3335C73.5383 14.8673 74.352 14.6185 75.1844 14.6185C76.3007 14.6185 77.3712 15.0655 78.1605 15.8611C78.9498 16.6566 79.3932 17.7357 79.3932 18.8608Z" fill="#33475B"/>
<path d="M94.8893 10.6753V6.91902C95.3818 6.68707 95.7988 6.31889 96.0918 5.85735C96.3847 5.39581 96.5416 4.85988 96.5441 4.31197V4.22519C96.5441 3.45807 96.2418 2.72237 95.7036 2.17993C95.1655 1.63749 94.4356 1.33276 93.6745 1.33276H93.5884C92.8274 1.33276 92.0974 1.63749 91.5593 2.17993C91.0211 2.72237 90.7188 3.45807 90.7188 4.22519V4.31197C90.7213 4.85988 90.8782 5.39581 91.1712 5.85735C91.4641 6.31889 91.8811 6.68707 92.3736 6.91902V10.6753C90.9581 10.8936 89.625 11.485 88.5092 12.3896L78.2894 4.36596C78.3618 4.10137 78.4003 3.82857 78.4042 3.55415C78.4054 2.90953 78.2168 2.27906 77.8624 1.74248C77.508 1.20589 77.0037 0.7873 76.4132 0.539648C75.8228 0.291996 75.1727 0.22641 74.5453 0.351186C73.9179 0.475961 73.3412 0.785493 72.8883 1.24063C72.4354 1.69577 72.1267 2.27606 72.001 2.90811C71.8754 3.54016 71.9385 4.19557 72.1825 4.79145C72.4264 5.38732 72.8402 5.89689 73.3715 6.25569C73.9028 6.61449 74.5277 6.80641 75.1673 6.80718C75.7265 6.80466 76.2753 6.6544 76.759 6.37138L86.8237 14.2639C85.9194 15.6406 85.4475 17.2601 85.4697 18.9111C85.4919 20.5621 86.0071 22.1681 86.9481 23.5197L83.8871 26.6049C83.6396 26.5253 83.3817 26.483 83.1219 26.4796C82.5969 26.48 82.0838 26.6372 81.6474 26.9315C81.211 27.2257 80.871 27.6437 80.6702 28.1327C80.4695 28.6217 80.4171 29.1597 80.5196 29.6787C80.6221 30.1977 80.8749 30.6744 81.2462 31.0486C81.6174 31.4228 82.0904 31.6777 82.6053 31.781C83.1202 31.8844 83.654 31.8315 84.1391 31.6292C84.6242 31.4268 85.039 31.0841 85.3309 30.6442C85.6228 30.2044 85.7788 29.6872 85.7792 29.158C85.7759 28.8961 85.734 28.6362 85.6548 28.3867L88.6833 25.3342C89.6708 26.1002 90.8191 26.6281 92.0403 26.8777C93.2615 27.1273 94.5231 27.0918 95.7286 26.7741C96.9341 26.4563 98.0515 25.8647 98.9951 25.0445C99.9388 24.2242 100.684 23.1972 101.173 22.0421C101.662 20.8869 101.882 19.6342 101.817 18.38C101.751 17.1258 101.402 15.9033 100.795 14.8062C100.189 13.709 99.3414 12.7664 98.3177 12.0503C97.294 11.3343 96.1212 10.864 94.8893 10.6753ZM93.6343 23.028C92.8059 23.0272 91.9964 22.7789 91.3079 22.3145C90.6195 21.8501 90.0831 21.1904 89.7665 20.4188C89.4499 19.6472 89.3674 18.7984 89.5293 17.9795C89.6913 17.1606 90.0904 16.4085 90.6763 15.8182C91.2622 15.228 92.0086 14.826 92.821 14.6631C93.6335 14.5003 94.4757 14.5839 95.241 14.9033C96.0064 15.2228 96.6607 15.7637 97.1211 16.4579C97.5815 17.152 97.8275 17.9681 97.8278 18.8031C97.8278 19.9231 97.3864 20.9972 96.6007 21.7892C95.815 22.5811 94.7493 23.026 93.6382 23.026" fill="#FF7A59"/>
</g>
<defs>
<clipPath id="clip0_45_8208">
<rect width="112" height="32" fill="white" transform="translate(0 0.291504)"/>
</clipPath>
</defs>
</svg>
