<svg width="132" height="25" viewBox="0 0 132 25" fill="none" xmlns="http://www.w3.org/2000/svg">
<path d="M12.0001 18.5665L7.85008 21.0665C7.66675 21.1831 7.47508 21.2331 7.27508 21.2165C7.07508 21.1998 6.90008 21.1331 6.75008 21.0165C6.60008 20.8998 6.48342 20.7538 6.40008 20.5785C6.31675 20.4031 6.30008 20.2075 6.35008 19.9915L7.45008 15.2665L3.77508 12.0915C3.60842 11.9415 3.50442 11.7705 3.46308 11.5785C3.42175 11.3865 3.43408 11.1991 3.50008 11.0165C3.56675 10.8331 3.66675 10.6831 3.80008 10.5665C3.93342 10.4498 4.11675 10.3748 4.35008 10.3415L9.20008 9.91646L11.0751 5.46646C11.1584 5.26646 11.2878 5.11646 11.4631 5.01646C11.6384 4.91646 11.8174 4.86646 12.0001 4.86646C12.1834 4.86646 12.3624 4.91646 12.5371 5.01646C12.7118 5.11646 12.8411 5.26646 12.9251 5.46646L14.8001 9.91646L19.6501 10.3415C19.8834 10.3748 20.0668 10.4498 20.2001 10.5665C20.3334 10.6831 20.4334 10.8331 20.5001 11.0165C20.5668 11.1998 20.5794 11.3875 20.5381 11.5795C20.4967 11.7715 20.3924 11.9421 20.2251 12.0915L16.5501 15.2665L17.6501 19.9915C17.7001 20.2081 17.6834 20.4041 17.6001 20.5795C17.5168 20.7548 17.4001 20.9005 17.2501 21.0165C17.1001 21.1331 16.9251 21.1998 16.7251 21.2165C16.5251 21.2331 16.3334 21.1831 16.1501 21.0665L12.0001 18.5665Z" fill="#F0BD22"/>
<path d="M39.0001 18.5665L34.8501 21.0665C34.6668 21.1831 34.4751 21.2331 34.2751 21.2165C34.0751 21.1998 33.9001 21.1331 33.7501 21.0165C33.6001 20.8998 33.4834 20.7538 33.4001 20.5785C33.3168 20.4031 33.3001 20.2075 33.3501 19.9915L34.4501 15.2665L30.7751 12.0915C30.6084 11.9415 30.5044 11.7705 30.4631 11.5785C30.4218 11.3865 30.4341 11.1991 30.5001 11.0165C30.5668 10.8331 30.6668 10.6831 30.8001 10.5665C30.9334 10.4498 31.1168 10.3748 31.3501 10.3415L36.2001 9.91646L38.0751 5.46646C38.1584 5.26646 38.2878 5.11646 38.4631 5.01646C38.6384 4.91646 38.8174 4.86646 39.0001 4.86646C39.1834 4.86646 39.3624 4.91646 39.5371 5.01646C39.7118 5.11646 39.8411 5.26646 39.9251 5.46646L41.8001 9.91646L46.6501 10.3415C46.8834 10.3748 47.0668 10.4498 47.2001 10.5665C47.3334 10.6831 47.4334 10.8331 47.5001 11.0165C47.5668 11.1998 47.5794 11.3875 47.5381 11.5795C47.4967 11.7715 47.3924 11.9421 47.2251 12.0915L43.5501 15.2665L44.6501 19.9915C44.7001 20.2081 44.6834 20.4041 44.6001 20.5795C44.5168 20.7548 44.4001 20.9005 44.2501 21.0165C44.1001 21.1331 43.9251 21.1998 43.7251 21.2165C43.5251 21.2331 43.3334 21.1831 43.1501 21.0665L39.0001 18.5665Z" fill="#F0BD22"/>
<path d="M66.0001 18.5665L61.8501 21.0665C61.6668 21.1831 61.4751 21.2331 61.2751 21.2165C61.0751 21.1998 60.9001 21.1331 60.7501 21.0165C60.6001 20.8998 60.4834 20.7538 60.4001 20.5785C60.3168 20.4031 60.3001 20.2075 60.3501 19.9915L61.4501 15.2665L57.7751 12.0915C57.6084 11.9415 57.5044 11.7705 57.4631 11.5785C57.4218 11.3865 57.4341 11.1991 57.5001 11.0165C57.5668 10.8331 57.6668 10.6831 57.8001 10.5665C57.9334 10.4498 58.1168 10.3748 58.3501 10.3415L63.2001 9.91646L65.0751 5.46646C65.1584 5.26646 65.2878 5.11646 65.4631 5.01646C65.6384 4.91646 65.8174 4.86646 66.0001 4.86646C66.1834 4.86646 66.3624 4.91646 66.5371 5.01646C66.7118 5.11646 66.8411 5.26646 66.9251 5.46646L68.8001 9.91646L73.6501 10.3415C73.8834 10.3748 74.0668 10.4498 74.2001 10.5665C74.3334 10.6831 74.4334 10.8331 74.5001 11.0165C74.5668 11.1998 74.5794 11.3875 74.5381 11.5795C74.4967 11.7715 74.3924 11.9421 74.2251 12.0915L70.5501 15.2665L71.6501 19.9915C71.7001 20.2081 71.6834 20.4041 71.6001 20.5795C71.5168 20.7548 71.4001 20.9005 71.2501 21.0165C71.1001 21.1331 70.9251 21.1998 70.7251 21.2165C70.5251 21.2331 70.3334 21.1831 70.1501 21.0665L66.0001 18.5665Z" fill="#F0BD22"/>
<path d="M93.0001 18.5665L88.8501 21.0665C88.6668 21.1831 88.4751 21.2331 88.2751 21.2165C88.0751 21.1998 87.9001 21.1331 87.7501 21.0165C87.6001 20.8998 87.4834 20.7538 87.4001 20.5785C87.3168 20.4031 87.3001 20.2075 87.3501 19.9915L88.4501 15.2665L84.7751 12.0915C84.6084 11.9415 84.5044 11.7705 84.4631 11.5785C84.4218 11.3865 84.4341 11.1991 84.5001 11.0165C84.5668 10.8331 84.6668 10.6831 84.8001 10.5665C84.9334 10.4498 85.1168 10.3748 85.3501 10.3415L90.2001 9.91646L92.0751 5.46646C92.1584 5.26646 92.2878 5.11646 92.4631 5.01646C92.6384 4.91646 92.8174 4.86646 93.0001 4.86646C93.1834 4.86646 93.3624 4.91646 93.5371 5.01646C93.7118 5.11646 93.8411 5.26646 93.9251 5.46646L95.8001 9.91646L100.65 10.3415C100.883 10.3748 101.067 10.4498 101.2 10.5665C101.333 10.6831 101.433 10.8331 101.5 11.0165C101.567 11.1998 101.579 11.3875 101.538 11.5795C101.497 11.7715 101.392 11.9421 101.225 12.0915L97.5501 15.2665L98.6501 19.9915C98.7001 20.2081 98.6834 20.4041 98.6001 20.5795C98.5168 20.7548 98.4001 20.9005 98.2501 21.0165C98.1001 21.1331 97.9251 21.1998 97.7251 21.2165C97.5251 21.2331 97.3334 21.1831 97.1501 21.0665L93.0001 18.5665Z" fill="#F0BD22"/>
<path d="M120 8.41646V16.2165L123.15 18.1415L122.325 14.5415L125.1 12.1415L121.45 11.8165L120 8.41646ZM120 18.5665L115.85 21.0665C115.667 21.1831 115.475 21.2331 115.275 21.2165C115.075 21.1998 114.9 21.1331 114.75 21.0165C114.6 20.8998 114.483 20.7538 114.4 20.5785C114.317 20.4031 114.3 20.2075 114.35 19.9915L115.45 15.2665L111.775 12.0915C111.608 11.9415 111.504 11.7705 111.463 11.5785C111.422 11.3865 111.434 11.1991 111.5 11.0165C111.567 10.8331 111.667 10.6831 111.8 10.5665C111.933 10.4498 112.117 10.3748 112.35 10.3415L117.2 9.91646L119.075 5.46646C119.158 5.26646 119.288 5.11646 119.463 5.01646C119.638 4.91646 119.817 4.86646 120 4.86646C120.183 4.86646 120.362 4.91646 120.537 5.01646C120.712 5.11646 120.841 5.26646 120.925 5.46646L122.8 9.91646L127.65 10.3415C127.883 10.3748 128.067 10.4498 128.2 10.5665C128.333 10.6831 128.433 10.8331 128.5 11.0165C128.567 11.1998 128.579 11.3875 128.538 11.5795C128.497 11.7715 128.392 11.9421 128.225 12.0915L124.55 15.2665L125.65 19.9915C125.7 20.2081 125.683 20.4041 125.6 20.5795C125.517 20.7548 125.4 20.9005 125.25 21.0165C125.1 21.1331 124.925 21.1998 124.725 21.2165C124.525 21.2331 124.333 21.1831 124.15 21.0665L120 18.5665Z" fill="#F0BD22"/>
</svg>
