<svg width="260" height="43" viewBox="0 0 260 43" fill="none" xmlns="http://www.w3.org/2000/svg">
<rect x="1" y="0.791504" width="258" height="41" rx="3.5" fill="white"/>
<path d="M33 28.7915L28.0001 23.7915M29.6667 19.6248C29.6667 22.8465 27.055 25.4582 23.8333 25.4582C20.6117 25.4582 18 22.8465 18 19.6248C18 16.4032 20.6117 13.7915 23.8333 13.7915C27.055 13.7915 29.6667 16.4032 29.6667 19.6248Z" stroke="black" stroke-width="1.3" stroke-linecap="round" stroke-linejoin="round"/>
<path d="M57.318 24.4035C57.372 25.3575 57.732 26.1135 58.416 26.6715C59.082 27.2295 59.946 27.4995 61.026 27.4995C62.052 27.4995 62.88 27.2835 63.492 26.8155C64.104 26.3475 64.428 25.7175 64.428 24.9075C64.428 24.3315 64.248 23.8815 63.924 23.5395C63.6 23.2155 63.168 22.9635 62.664 22.8015C62.142 22.6395 61.476 22.4955 60.684 22.3515C59.838 22.2075 59.136 22.0455 58.578 21.8295C58.002 21.6135 57.534 21.2895 57.174 20.8575C56.796 20.4255 56.616 19.8135 56.616 19.0575C56.616 18.3735 56.778 17.7615 57.138 17.2215C57.48 16.6995 57.966 16.2855 58.614 15.9975C59.262 15.7095 60 15.5655 60.846 15.5655C62.088 15.5655 63.096 15.9075 63.888 16.5555C64.68 17.2035 65.112 18.0675 65.22 19.1475L64.266 19.1655C64.158 18.3375 63.798 17.6895 63.186 17.1855C62.574 16.6995 61.782 16.4475 60.846 16.4475C59.838 16.4475 59.046 16.6815 58.47 17.1315C57.876 17.5815 57.588 18.2115 57.588 19.0035C57.588 19.5795 57.732 20.0115 58.056 20.3355C58.362 20.6595 58.758 20.8935 59.226 21.0375C59.694 21.1815 60.36 21.3255 61.188 21.4695C62.016 21.6135 62.736 21.7935 63.33 22.0095C63.924 22.2255 64.41 22.5675 64.806 23.0175C65.202 23.4855 65.4 24.0795 65.4 24.8355C65.4 25.5375 65.202 26.1495 64.842 26.6895C64.482 27.2295 63.96 27.6615 63.312 27.9495C62.646 28.2555 61.872 28.3995 61.008 28.3995C60.09 28.3995 59.28 28.2375 58.596 27.9135C57.912 27.5895 57.372 27.1215 56.976 26.5095C56.58 25.8975 56.382 25.1955 56.346 24.4035H57.318ZM67.5362 21.2895C67.8962 20.5875 68.3822 20.0475 69.0302 19.6515C69.6782 19.2555 70.3982 19.0575 71.2262 19.0575C72.0182 19.0575 72.7382 19.2375 73.3682 19.5795C73.9802 19.9215 74.4842 20.4075 74.8442 21.0555C75.2042 21.7035 75.4022 22.4775 75.4382 23.3595C75.4382 23.5395 75.4202 23.6655 75.4202 23.7375H67.9862C67.9682 23.7915 67.9682 23.8635 67.9682 23.9535C67.9682 24.6735 68.1302 25.3035 68.4182 25.8435C68.7062 26.3835 69.1022 26.8155 69.6062 27.1215C70.1102 27.4275 70.6682 27.5715 71.3162 27.5715C72.0542 27.5715 72.7022 27.3735 73.2602 26.9595C73.8002 26.5455 74.1782 25.9875 74.3582 25.2675H75.2942C75.0782 26.2035 74.6102 26.9595 73.9082 27.5355C73.2062 28.1115 72.3602 28.3995 71.3882 28.3995C70.5242 28.3995 69.7682 28.2015 69.1022 27.8055C68.4362 27.4095 67.9142 26.8695 67.5542 26.1495C67.1942 25.4475 67.0142 24.6375 67.0142 23.7195C67.0142 22.8195 67.1762 22.0095 67.5362 21.2895ZM74.4842 22.9635C74.3942 21.9915 74.0522 21.2175 73.4762 20.6775C72.9002 20.1375 72.1442 19.8675 71.2442 19.8675C70.6862 19.8675 70.1822 20.0115 69.7142 20.2635C69.2462 20.5155 68.8502 20.8755 68.5622 21.3435C68.2562 21.8115 68.0762 22.3515 68.0402 22.9635H74.4842ZM85.693 27.4455V28.2915H85.153C84.613 28.2915 84.235 28.1655 83.983 27.8955C83.731 27.6435 83.623 27.2655 83.659 26.7795V26.4015C83.371 27.0135 82.939 27.4995 82.363 27.8595C81.769 28.2195 81.031 28.3995 80.167 28.3995C79.177 28.3995 78.385 28.1655 77.809 27.6975C77.215 27.2295 76.927 26.5995 76.927 25.7895C76.927 24.9255 77.233 24.2595 77.845 23.7915C78.457 23.3235 79.357 23.0715 80.527 23.0715H83.623V22.2795C83.623 21.5235 83.371 20.9475 82.903 20.5155C82.435 20.0835 81.769 19.8675 80.923 19.8675C80.167 19.8675 79.537 20.0475 79.069 20.3715C78.601 20.7135 78.295 21.1635 78.187 21.7215H77.269C77.377 20.8935 77.773 20.2455 78.421 19.7775C79.069 19.3095 79.915 19.0575 80.959 19.0575C82.093 19.0575 82.975 19.3455 83.605 19.9035C84.217 20.4795 84.541 21.2715 84.541 22.3155V26.5635C84.541 26.8515 84.613 27.0675 84.757 27.2115C84.901 27.3735 85.099 27.4455 85.351 27.4455H85.693ZM83.623 23.8635H80.455C79.609 23.8635 78.961 24.0255 78.529 24.3495C78.079 24.6735 77.863 25.1415 77.863 25.7355C77.863 26.3115 78.061 26.7615 78.493 27.1035C78.925 27.4455 79.501 27.6075 80.221 27.6075C81.265 27.6075 82.093 27.3375 82.705 26.7795C83.317 26.2215 83.623 25.5015 83.623 24.6015V23.8635ZM91.0598 19.1655V20.0475H90.4658C89.4758 20.0475 88.7918 20.3895 88.4138 21.0555C88.0178 21.7215 87.8378 22.5855 87.8378 23.6655V28.2915H86.9198V19.1655H87.7118L87.8558 20.9835C88.0718 20.4255 88.3958 19.9755 88.8278 19.6515C89.2598 19.3275 89.8538 19.1655 90.6458 19.1655H91.0598ZM98.4469 27.5895C97.7629 28.1295 96.8989 28.3995 95.8909 28.3995C95.0269 28.3995 94.2709 28.2015 93.6229 27.8055C92.9749 27.4095 92.4709 26.8695 92.1109 26.1495C91.7509 25.4475 91.5709 24.6375 91.5709 23.7015C91.5709 22.8015 91.7509 21.9915 92.1109 21.2895C92.4709 20.5875 92.9929 20.0475 93.6589 19.6515C94.3069 19.2555 95.0629 19.0575 95.9269 19.0575C96.9349 19.0575 97.7989 19.3455 98.4829 19.8855C99.1669 20.4255 99.5809 21.1635 99.7609 22.0995H98.8429C98.6809 21.4155 98.3389 20.8755 97.8169 20.4795C97.2769 20.0835 96.6469 19.8675 95.8909 19.8675C95.2249 19.8675 94.6309 20.0295 94.1269 20.3535C93.6229 20.6775 93.2269 21.1455 92.9389 21.7215C92.6509 22.2975 92.5069 22.9635 92.5069 23.7015C92.5069 24.4575 92.6509 25.1235 92.9389 25.6995C93.2269 26.2935 93.6229 26.7615 94.1269 27.0855C94.6309 27.4095 95.2249 27.5715 95.8909 27.5715C96.6469 27.5715 97.2769 27.3735 97.8169 26.9775C98.3389 26.5815 98.6809 26.0235 98.8429 25.3395H99.7609C99.5809 26.2935 99.1309 27.0495 98.4469 27.5895ZM108.437 20.0835C109.085 20.7675 109.427 21.8115 109.427 23.1795V28.2915H108.509V23.2155C108.509 22.1535 108.257 21.3435 107.753 20.7675C107.249 20.1915 106.565 19.9035 105.683 19.9035C104.711 19.9035 103.937 20.2635 103.379 20.9655C102.803 21.6675 102.533 22.6035 102.533 23.7915V28.2915H101.615V15.6915H102.533V21.3255C102.803 20.6415 103.217 20.0835 103.775 19.6695C104.315 19.2735 104.999 19.0575 105.827 19.0575C106.907 19.0575 107.789 19.3995 108.437 20.0835Z" fill="#B8B8B8"/>
<rect x="1" y="0.791504" width="258" height="41" rx="3.5" stroke="#BDBDBD"/>
</svg>
