<svg width="12" height="11" viewBox="0 0 12 11" fill="none" xmlns="http://www.w3.org/2000/svg">
<path fill-rule="evenodd" clip-rule="evenodd" d="M5.6406 3.04545L5.66578 3.46068L5.2461 3.40983C3.71843 3.21493 2.38383 2.55396 1.25067 1.44386L0.696681 0.893048L0.553988 1.2998C0.251813 2.20652 0.444869 3.16409 1.0744 3.80811C1.41015 4.16402 1.33461 4.21486 0.755438 4.00301C0.553988 3.93522 0.377719 3.88438 0.360931 3.9098C0.302175 3.96912 0.503625 4.74025 0.663106 5.04532C0.881344 5.46902 1.32621 5.88425 1.81305 6.12999L2.22434 6.3249L1.73751 6.33337C1.26746 6.33337 1.25067 6.34184 1.30103 6.5198C1.46891 7.07061 2.13201 7.65532 2.87066 7.90954L3.39108 8.08749L2.93781 8.35866C2.26631 8.74847 1.4773 8.96879 0.688288 8.98574C0.310569 8.99421 0 9.02811 0 9.05353C0 9.13827 1.02404 9.61282 1.61999 9.79924C3.40786 10.3501 5.53148 10.1128 7.1263 9.17217C8.25945 8.50272 9.39261 7.1723 9.92142 5.88425C10.2068 5.19785 10.4922 3.9437 10.4922 3.34204C10.4922 2.95224 10.5174 2.90139 10.9874 2.43532C11.2644 2.16415 11.5246 1.86756 11.575 1.78282C11.6589 1.62181 11.6505 1.62181 11.2224 1.76587C10.509 2.02009 10.4083 1.9862 10.7608 1.60487C11.021 1.3337 11.3316 0.842204 11.3316 0.698145C11.3316 0.672723 11.2057 0.715094 11.063 0.79136C10.9119 0.8761 10.5761 1.00321 10.3243 1.07948L9.87105 1.22353L9.45976 0.943892C9.23313 0.79136 8.91417 0.621879 8.74629 0.571035C8.31821 0.452399 7.6635 0.469347 7.27738 0.604931C6.22816 0.986262 5.56506 1.96925 5.6406 3.04545Z" fill="white"/>
</svg>
