<svg width="14" height="11" viewBox="0 0 14 11" fill="none" xmlns="http://www.w3.org/2000/svg">
<path fill-rule="evenodd" clip-rule="evenodd" d="M12.0009 1.16627C12.5517 1.3174 12.9854 1.76271 13.1326 2.32821C13.4001 3.35312 13.4001 5.4916 13.4001 5.4916C13.4001 5.4916 13.4001 7.63001 13.1326 8.65499C12.9854 9.2205 12.5517 9.6658 12.0009 9.81701C11.0028 10.0916 7.0001 10.0916 7.0001 10.0916C7.0001 10.0916 2.99741 10.0916 1.99923 9.81701C1.44846 9.6658 1.01472 9.2205 0.867516 8.65499C0.600098 7.63001 0.600098 5.4916 0.600098 5.4916C0.600098 5.4916 0.600098 3.35312 0.867516 2.32821C1.01472 1.76271 1.44846 1.3174 1.99923 1.16627C2.99741 0.891602 7.0001 0.891602 7.0001 0.891602C7.0001 0.891602 11.0028 0.891602 12.0009 1.16627ZM5.80011 3.69156V7.69156L9.00011 5.69164L5.80011 3.69156Z" fill="white"/>
</svg>
