<svg width="142" height="117" viewBox="0 0 142 117" fill="none" xmlns="http://www.w3.org/2000/svg">
<g opacity="0.3" clip-path="url(#clip0_45_8264)">
<path fill-rule="evenodd" clip-rule="evenodd" d="M141.377 18.4086C120.202 28.4738 109.615 40.3001 109.615 53.888C118.64 54.8945 126.103 58.4592 132.005 64.5822C137.906 70.7051 140.857 77.7925 140.857 85.8446C140.857 94.4 137.993 101.613 132.265 107.485C126.537 113.356 119.334 116.292 110.656 116.292C100.936 116.292 92.5185 112.475 85.4023 104.842C78.286 97.2098 74.728 87.9416 74.728 77.0377C74.728 44.326 93.6465 18.7442 131.484 0.291504L141.377 18.4086ZM66.6493 18.4086C45.3006 28.4738 34.6264 40.3001 34.6264 53.888C43.8254 54.8945 51.3755 58.4592 57.2767 64.5822C63.178 70.7051 66.1286 77.7925 66.1286 85.8446C66.1286 94.4 63.2214 101.613 57.4069 107.485C51.5924 113.356 44.3461 116.292 35.6678 116.292C25.948 116.292 17.5736 112.475 10.5441 104.842C3.51467 97.2098 0 87.9416 0 77.0377C0 44.326 18.8317 18.7442 56.4957 0.291504L66.6493 18.4086Z" fill="#1DB5BE"/>
</g>
<defs>
<clipPath id="clip0_45_8264">
<rect width="142" height="116" fill="white" transform="translate(0 0.291504)"/>
</clipPath>
</defs>
</svg>
