<svg width="24" height="25" viewBox="0 0 24 25" fill="none" xmlns="http://www.w3.org/2000/svg">
<path opacity="0.1" fill-rule="evenodd" clip-rule="evenodd" d="M0 12.2915C0 5.66409 5.37258 0.291504 12 0.291504C18.6274 0.291504 24 5.66409 24 12.2915C24 18.9189 18.6274 24.2915 12 24.2915C5.37258 24.2915 0 18.9189 0 12.2915Z" fill="white"/>
<path fill-rule="evenodd" clip-rule="evenodd" d="M17.0009 8.16627C17.5517 8.3174 17.9854 8.76271 18.1326 9.32821C18.4001 10.3531 18.4001 12.4916 18.4001 12.4916C18.4001 12.4916 18.4001 14.63 18.1326 15.655C17.9854 16.2205 17.5517 16.6658 17.0009 16.817C16.0028 17.0916 12.0001 17.0916 12.0001 17.0916C12.0001 17.0916 7.99741 17.0916 6.99923 16.817C6.44846 16.6658 6.01472 16.2205 5.86752 15.655C5.6001 14.63 5.6001 12.4916 5.6001 12.4916C5.6001 12.4916 5.6001 10.3531 5.86752 9.32821C6.01472 8.76271 6.44846 8.3174 6.99923 8.16627C7.99741 7.8916 12.0001 7.8916 12.0001 7.8916C12.0001 7.8916 16.0028 7.8916 17.0009 8.16627ZM10.8001 10.6916V14.6916L14.0001 12.6916L10.8001 10.6916Z" fill="white"/>
</svg>
