<svg width="24" height="25" viewBox="0 0 24 25" fill="none" xmlns="http://www.w3.org/2000/svg">
<path opacity="0.1" fill-rule="evenodd" clip-rule="evenodd" d="M0 12.2915C0 5.66409 5.37258 0.291504 12 0.291504C18.6274 0.291504 24 5.66409 24 12.2915C24 18.9189 18.6274 24.2915 12 24.2915C5.37258 24.2915 0 18.9189 0 12.2915Z" fill="white"/>
<path fill-rule="evenodd" clip-rule="evenodd" d="M12.0007 5.8916C10.2625 5.8916 10.0444 5.8992 9.36174 5.93027C8.6804 5.96147 8.21533 6.06934 7.80839 6.22761C7.38745 6.39107 7.03038 6.60974 6.67464 6.96561C6.31864 7.32135 6.09997 7.67842 5.93597 8.09922C5.7773 8.5063 5.6693 8.9715 5.63863 9.65257C5.6081 10.3352 5.6001 10.5535 5.6001 12.2917C5.6001 14.0298 5.60783 14.2473 5.63876 14.93C5.6701 15.6113 5.77797 16.0764 5.9361 16.4833C6.0997 16.9042 6.31837 17.2613 6.67424 17.6171C7.02985 17.9731 7.38692 18.1923 7.80759 18.3557C8.21479 18.514 8.68 18.6219 9.3612 18.6531C10.0439 18.6841 10.2619 18.6917 11.9999 18.6917C13.7382 18.6917 13.9557 18.6841 14.6383 18.6531C15.3197 18.6219 15.7853 18.514 16.1925 18.3557C16.6133 18.1923 16.9698 17.9731 17.3254 17.6171C17.6814 17.2613 17.9001 16.9042 18.0641 16.4834C18.2214 16.0764 18.3294 15.6112 18.3614 14.9301C18.3921 14.2474 18.4001 14.0298 18.4001 12.2917C18.4001 10.5535 18.3921 10.3354 18.3614 9.65271C18.3294 8.97137 18.2214 8.5063 18.0641 8.09936C17.9001 7.67842 17.6814 7.32135 17.3254 6.96561C16.9694 6.60961 16.6134 6.39094 16.1921 6.22761C15.7841 6.06934 15.3187 5.96147 14.6374 5.93027C13.9547 5.8992 13.7374 5.8916 11.9987 5.8916H12.0007ZM11.4265 7.04493C11.5969 7.04466 11.7871 7.04493 12.0007 7.04493C13.7095 7.04493 13.912 7.05106 14.5868 7.08173C15.2108 7.11026 15.5495 7.21453 15.7751 7.30213C16.0738 7.41813 16.2867 7.5568 16.5106 7.7808C16.7346 8.00481 16.8733 8.21814 16.9895 8.51681C17.0771 8.74215 17.1815 9.08082 17.2099 9.70482C17.2406 10.3795 17.2473 10.5822 17.2473 12.2902C17.2473 13.9982 17.2406 14.2009 17.2099 14.8755C17.1814 15.4996 17.0771 15.8382 16.9895 16.0636C16.8735 16.3622 16.7346 16.5749 16.5106 16.7988C16.2866 17.0228 16.0739 17.1614 15.7751 17.2774C15.5498 17.3654 15.2108 17.4694 14.5868 17.498C13.9122 17.5286 13.7095 17.5353 12.0007 17.5353C10.2917 17.5353 10.0892 17.5286 9.41451 17.498C8.7905 17.4692 8.45183 17.3649 8.2261 17.2773C7.92743 17.1613 7.71409 17.0226 7.49009 16.7986C7.26609 16.5746 7.12742 16.3618 7.01115 16.063C6.92355 15.8377 6.81915 15.499 6.79075 14.875C6.76008 14.2003 6.75395 13.9977 6.75395 12.2886C6.75395 10.5795 6.76008 10.3779 6.79075 9.70322C6.81928 9.07922 6.92355 8.74055 7.01115 8.51494C7.12715 8.21627 7.26609 8.00294 7.49009 7.77894C7.71409 7.55493 7.92743 7.41627 8.2261 7.3C8.4517 7.212 8.7905 7.108 9.41451 7.07933C10.0049 7.05266 10.2337 7.04466 11.4265 7.04333V7.04493ZM15.417 8.10761C14.993 8.10761 14.649 8.45121 14.649 8.87535C14.649 9.29936 14.993 9.64336 15.417 9.64336C15.841 9.64336 16.185 9.29936 16.185 8.87535C16.185 8.45135 15.841 8.10761 15.417 8.10761ZM12.0007 9.00495C10.1856 9.00495 8.71401 10.4766 8.71401 12.2917C8.71401 14.1067 10.1856 15.5777 12.0007 15.5777C13.8158 15.5777 15.2869 14.1067 15.2869 12.2917C15.2869 10.4766 13.8158 9.00495 12.0007 9.00495ZM12.0007 10.1583C13.1788 10.1583 14.134 11.1134 14.134 12.2917C14.134 13.4698 13.1788 14.425 12.0007 14.425C10.8224 14.425 9.86733 13.4698 9.86733 12.2917C9.86733 11.1134 10.8224 10.1583 12.0007 10.1583Z" fill="white"/>
</svg>
