<svg width="24" height="25" viewBox="0 0 24 25" fill="none" xmlns="http://www.w3.org/2000/svg">
<path opacity="0.1" fill-rule="evenodd" clip-rule="evenodd" d="M0 12.2915C0 5.66409 5.37258 0.291504 12 0.291504C18.6274 0.291504 24 5.66409 24 12.2915C24 18.9189 18.6274 24.2915 12 24.2915C5.37258 24.2915 0 18.9189 0 12.2915Z" fill="white"/>
<path fill-rule="evenodd" clip-rule="evenodd" d="M18.4001 12.2827C18.4001 12.7155 18.356 13.1478 18.2695 13.5691C18.1851 13.9804 18.0601 14.3842 17.8963 14.7702C17.7363 15.1494 17.5379 15.5148 17.306 15.8556C17.0776 16.1942 16.8144 16.5119 16.5253 16.8014C16.2356 17.0898 15.9169 17.3522 15.5784 17.5816C15.2365 17.8119 14.8706 18.0101 14.4912 18.1708C14.1046 18.3337 13.6999 18.4585 13.2889 18.5428C12.867 18.6295 12.4333 18.6738 11.9998 18.6738C11.566 18.6738 11.1323 18.6295 10.711 18.5428C10.2994 18.4585 9.89471 18.3337 9.50844 18.1708C9.12905 18.0101 8.76277 17.8119 8.42088 17.5816C8.08243 17.3522 7.76366 17.0898 7.47458 16.8014C7.1852 16.5119 6.92205 16.1942 6.69329 15.8556C6.46265 15.5148 6.26388 15.1494 6.10326 14.7702C5.93948 14.3842 5.81418 13.9804 5.72948 13.5691C5.64386 13.1478 5.6001 12.7155 5.6001 12.2827C5.6001 11.8496 5.64384 11.4164 5.72951 10.9961C5.8142 10.5847 5.9395 10.1803 6.10328 9.79493C6.2639 9.41546 6.46268 9.04973 6.69332 8.70894C6.92207 8.37005 7.18523 8.05297 7.47461 7.76306C7.76369 7.47469 8.08245 7.2129 8.42091 6.98384C8.76279 6.75259 9.12908 6.55445 9.50846 6.39341C9.89474 6.23017 10.2994 6.10505 10.711 6.02142C11.1323 5.9353 11.5661 5.8916 11.9998 5.8916C12.4333 5.8916 12.8671 5.9353 13.2889 6.02142C13.6999 6.10507 14.1046 6.23019 14.4912 6.39341C14.8706 6.55443 15.2366 6.75259 15.5784 6.98384C15.9169 7.2129 16.2357 7.47469 16.5254 7.76306C16.8144 8.05297 17.0776 8.37005 17.306 8.70894C17.5379 9.04973 17.7363 9.41549 17.8963 9.79493C18.0601 10.1803 18.1851 10.5847 18.2695 10.9961C18.356 11.4164 18.4001 11.8496 18.4001 12.2827ZM9.66779 7.34614C8.14363 8.06484 7.00607 9.46726 6.65136 11.1574C6.79545 11.1587 9.07307 11.1874 11.6973 10.4911C10.7513 8.81284 9.74061 7.44322 9.66779 7.34614ZM12.1501 11.3316C9.33589 12.1729 6.63543 12.1123 6.53856 12.1086C6.53698 12.1673 6.53417 12.224 6.53417 12.2827C6.53417 13.6848 7.06389 14.963 7.93456 15.9295C7.93268 15.9267 9.4284 13.277 12.3779 12.3245C12.4492 12.3008 12.5217 12.2796 12.5936 12.259C12.4564 11.9488 12.3067 11.638 12.1501 11.3316ZM15.6094 8.18654C14.6471 7.33926 13.3836 6.82532 11.9998 6.82532C11.5557 6.82532 11.1247 6.879 10.7119 6.97823C10.7938 7.0881 11.8204 8.44806 12.7551 10.1619C14.8174 9.38987 15.5959 8.2065 15.6094 8.18654ZM12.9661 13.1634C12.9539 13.1674 12.9418 13.1709 12.9299 13.1752C9.70507 14.2978 8.65196 16.5602 8.64057 16.5849C9.56845 17.3054 10.7323 17.7401 11.9998 17.7401C12.7567 17.7401 13.4777 17.5862 14.1337 17.3076C14.0527 16.8308 13.7352 15.1593 12.9661 13.1634ZM15.054 16.8089C16.2812 15.982 17.1528 14.6688 17.396 13.1477C17.2835 13.1115 15.7543 12.6281 13.9902 12.9106C14.7071 14.8779 14.9984 16.48 15.054 16.8089ZM13.1758 10.9752C13.3027 11.2354 13.4255 11.5003 13.539 11.7666C13.5793 11.8621 13.6187 11.9557 13.6571 12.0493C15.5347 11.8134 17.3845 12.2103 17.4635 12.2265C17.451 10.9327 16.9876 9.74529 16.2207 8.81567C16.2104 8.8303 15.3338 10.0951 13.1758 10.9752Z" fill="white"/>
</svg>
