<svg width="24" height="25" viewBox="0 0 24 25" fill="none" xmlns="http://www.w3.org/2000/svg">
<path opacity="0.1" fill-rule="evenodd" clip-rule="evenodd" d="M0 12.2915C0 5.66409 5.37258 0.291504 12 0.291504C18.6274 0.291504 24 5.66409 24 12.2915C24 18.9189 18.6274 24.2915 12 24.2915C5.37258 24.2915 0 18.9189 0 12.2915Z" fill="white"/>
<path fill-rule="evenodd" clip-rule="evenodd" d="M11.6406 10.0454L11.6658 10.4607L11.2461 10.4098C9.71843 10.2149 8.38383 9.55396 7.25067 8.44386L6.69668 7.89305L6.55399 8.2998C6.25181 9.20652 6.44487 10.1641 7.0744 10.8081C7.41015 11.164 7.33461 11.2149 6.75544 11.003C6.55399 10.9352 6.37772 10.8844 6.36093 10.9098C6.30218 10.9691 6.50363 11.7403 6.66311 12.0453C6.88134 12.469 7.32621 12.8842 7.81305 13.13L8.22434 13.3249L7.73751 13.3334C7.26746 13.3334 7.25067 13.3418 7.30103 13.5198C7.46891 14.0706 8.13201 14.6553 8.87066 14.9095L9.39108 15.0875L8.93781 15.3587C8.26631 15.7485 7.4773 15.9688 6.68829 15.9857C6.31057 15.9942 6 16.0281 6 16.0535C6 16.1383 7.02404 16.6128 7.61999 16.7992C9.40786 17.3501 11.5315 17.1128 13.1263 16.1722C14.2595 15.5027 15.3926 14.1723 15.9214 12.8842C16.2068 12.1979 16.4922 10.9437 16.4922 10.342C16.4922 9.95224 16.5174 9.90139 16.9874 9.43532C17.2644 9.16415 17.5246 8.86756 17.575 8.78282C17.6589 8.62181 17.6505 8.62181 17.2224 8.76587C16.509 9.02009 16.4083 8.9862 16.7608 8.60487C17.021 8.3337 17.3316 7.8422 17.3316 7.69815C17.3316 7.67272 17.2057 7.71509 17.063 7.79136C16.9119 7.8761 16.5761 8.00321 16.3243 8.07948L15.8711 8.22353L15.4598 7.94389C15.2331 7.79136 14.9142 7.62188 14.7463 7.57104C14.3182 7.4524 13.6635 7.46935 13.2774 7.60493C12.2282 7.98626 11.5651 8.96925 11.6406 10.0454Z" fill="white"/>
</svg>
