<svg width="20" height="20" viewBox="0 0 20 20" fill="none" xmlns="http://www.w3.org/2000/svg">
<path fill-rule="evenodd" clip-rule="evenodd" d="M3 12.382V7.61805C3 6.86051 3.428 6.16798 4.10557 5.8292L8.65836 3.5528C9.50294 3.13051 10.4971 3.13051 11.3416 3.5528L15.8944 5.8292C16.572 6.16798 17 6.86051 17 7.61805V12.382C17 13.1395 16.572 13.8321 15.8944 14.1708L11.3416 16.4472C10.4971 16.8695 9.50294 16.8695 8.65836 16.4472L4.10557 14.1708C3.428 13.8321 3 13.1395 3 12.382ZM4.55279 6.72362C4.38831 6.80586 4.25324 6.92979 4.15779 7.0789L9.44094 9.72047L9.7764 9.55274L15.4409 6.72048L10.8944 4.44723C10.3314 4.1657 9.66863 4.1657 9.10557 4.44723L4.55279 6.72362ZM15.9983 7.55982L10.2236 10.4472L9.99831 10.5598C9.99943 10.5791 10 10.5985 10 10.618V12.9409L15.7764 10.0527L16 9.94094V7.61805C16 7.59855 15.9994 7.57913 15.9983 7.55982ZM16 11.059L10.2236 13.9472L10 14.059V15.7639C9.69355 15.7639 9.3871 15.6936 9.10557 15.5528C9.66863 15.8343 10.3314 15.8343 10.8944 15.5528L15.4472 13.2764C15.786 13.107 16 12.7608 16 12.382V11.059Z" fill="black"/>
</svg>
