<svg width="20" height="20" viewBox="0 0 20 20" fill="none" xmlns="http://www.w3.org/2000/svg">
<path fill-rule="evenodd" clip-rule="evenodd" d="M10.6533 3.2223C11.3821 2.45304 12.6498 3.1969 12.3338 4.20832L11.1488 8.00005H15.3376C16.2155 8.00005 16.6673 9.05045 16.0635 9.68779L9.34662 16.7778C8.61786 17.547 7.35012 16.8032 7.66619 15.7918L8.8511 12H4.66238C3.78445 12 3.33264 10.9496 3.93643 10.3123L10.6533 3.2223ZM11.3793 3.91004L4.66238 11H8.8511C9.52574 11 10.0069 11.6544 9.80558 12.2983L8.62067 16.0901L15.3376 9.00005H11.1488C10.4742 9.00005 9.99309 8.34571 10.1944 7.70177L11.3793 3.91004Z" fill="black"/>
</svg>
