<svg width="20" height="20" viewBox="0 0 20 20" fill="none" xmlns="http://www.w3.org/2000/svg">
<path fill-rule="evenodd" clip-rule="evenodd" d="M3 7.61804V12.3819C3 13.1395 3.428 13.832 4.10557 14.1708L8.65836 16.4472C9.50294 16.8695 10.4971 16.8695 11.3416 16.4472L15.8944 14.1708C16.572 13.832 17 13.1395 17 12.3819V7.61804C17 6.8605 16.572 6.16797 15.8944 5.82919L11.3416 3.5528C10.4971 3.13051 9.50294 3.13051 8.65836 3.5528L4.10557 5.82919C3.428 6.16797 3 6.8605 3 7.61804ZM4 7.61804C4 7.23927 4.214 6.89301 4.55279 6.72362L9.10557 4.44722C9.66863 4.1657 10.3314 4.1657 10.8944 4.44722L15.4472 6.72362C15.786 6.89301 16 7.23927 16 7.61804V12.3819C16 12.7607 15.786 13.107 15.4472 13.2764L10.8944 15.5528C10.3314 15.8343 9.66863 15.8343 9.10557 15.5528L4.55279 13.2764C4.214 13.107 4 12.7607 4 12.3819V7.61804ZM10 6.00001C9.82338 6.00001 9.6492 6.01149 9.47819 6.03379C9.20437 6.06951 9.01135 6.32044 9.04707 6.59427C9.08279 6.86809 9.33372 7.06111 9.60754 7.02539C9.73577 7.00867 9.86675 7.00001 10 7.00001C10.1333 7.00001 10.2642 7.00867 10.3925 7.02539C10.6663 7.06111 10.9172 6.86809 10.9529 6.59427C10.9886 6.32044 10.7956 6.06951 10.5218 6.03379C10.3508 6.01149 10.1766 6.00001 10 6.00001ZM8.17392 7.61957C8.39288 7.45131 8.43398 7.13741 8.26572 6.91845C8.09745 6.69949 7.78355 6.65839 7.56459 6.82665C7.28767 7.03946 7.03945 7.28768 6.82664 7.5646C6.65838 7.78356 6.69948 8.09746 6.91844 8.26573C7.1374 8.43399 7.4513 8.39289 7.61956 8.17393C7.77941 7.96592 7.96591 7.77942 8.17392 7.61957ZM12.4354 6.82665C12.2164 6.65839 11.9025 6.69949 11.7343 6.91845C11.566 7.13741 11.6071 7.45131 11.8261 7.61957C12.0341 7.77942 12.2206 7.96592 12.3804 8.17393C12.5487 8.39289 12.8626 8.43399 13.0816 8.26573C13.3005 8.09746 13.3416 7.78356 13.1734 7.5646C12.9606 7.28768 12.7123 7.03946 12.4354 6.82665ZM13.9662 9.4782C13.9305 9.20438 13.6796 9.01136 13.4057 9.04708C13.1319 9.0828 12.9389 9.33373 12.9746 9.60755C12.9913 9.73578 13 9.86676 13 10C13 10.1332 12.9913 10.2642 12.9746 10.3924C12.9389 10.6663 13.1319 10.9172 13.4057 10.9529C13.6796 10.9886 13.9305 10.7956 13.9662 10.5218C13.9885 10.3508 14 10.1766 14 10C14 9.82339 13.9885 9.64921 13.9662 9.4782ZM7.02538 9.60755C7.0611 9.33373 6.86808 9.0828 6.59426 9.04708C6.32043 9.01136 6.0695 9.20438 6.03378 9.47821C6.01148 9.64921 6 9.82339 6 10C6 10.1766 6.01148 10.3508 6.03378 10.5218C6.0695 10.7956 6.32043 10.9886 6.59426 10.9529C6.86808 10.9172 7.0611 10.6663 7.02538 10.3924C7.00866 10.2642 7 10.1332 7 10C7 9.86676 7.00866 9.73578 7.02538 9.60755ZM7.61956 11.8261C7.4513 11.6071 7.1374 11.566 6.91844 11.7343C6.69948 11.9025 6.65838 12.2164 6.82664 12.4354C7.03945 12.7123 7.28767 12.9605 7.56459 13.1733C7.78355 13.3416 8.09745 13.3005 8.26572 13.0815C8.43398 12.8626 8.39288 12.5487 8.17392 12.3804C7.96591 12.2206 7.77941 12.0341 7.61956 11.8261ZM13.1734 12.4354C13.3416 12.2164 13.3005 11.9025 13.0816 11.7343C12.8626 11.566 12.5487 11.6071 12.3804 11.8261C12.2206 12.0341 12.0341 12.2206 11.8261 12.3804C11.6071 12.5487 11.566 12.8626 11.7343 13.0815C11.9025 13.3005 12.2164 13.3416 12.4354 13.1733C12.7123 12.9605 12.9606 12.7123 13.1734 12.4354ZM10.5218 13.9662C10.7956 13.9305 10.9886 13.6795 10.9529 13.4057C10.9172 13.1319 10.6663 12.9389 10.3925 12.9746C10.2642 12.9913 10.1333 13 10 13C9.86675 13 9.73577 12.9913 9.60754 12.9746C9.33372 12.9389 9.08279 13.1319 9.04707 13.4057C9.01135 13.6795 9.20437 13.9305 9.4782 13.9662C9.6492 13.9885 9.82338 14 10 14C10.1766 14 10.3508 13.9885 10.5218 13.9662Z" fill="black"/>
</svg>
