<svg width="112" height="33" viewBox="0 0 112 33" fill="none" xmlns="http://www.w3.org/2000/svg">
<path d="M32.1062 22.971C31.9305 22.581 31.7658 22.171 31.5901 21.821L30.7776 20.151L30.7446 20.121C28.329 15.321 25.7486 10.441 23.0144 5.64096L22.9046 5.44096C22.6301 4.97096 22.3556 4.45096 22.0701 3.97096C21.7188 3.40096 21.3784 2.79096 20.8184 2.21096C20.2725 1.60409 19.5855 1.11515 18.807 0.779415C18.0285 0.443682 17.1778 0.269531 16.3164 0.269531C15.455 0.269531 14.6044 0.443682 13.8258 0.779415C13.0473 1.11515 12.3603 1.60409 11.8144 2.21096C11.2984 2.79096 10.9141 3.40096 10.5627 3.97096C10.2882 4.49096 10.0137 5.00096 9.72817 5.47096L9.61837 5.67096C6.92818 10.471 4.30386 15.351 1.88818 20.151L1.82229 20.211C1.58072 20.731 1.29523 21.271 1.02072 21.851C0.845038 22.201 0.669352 22.581 0.493666 23.001C0.0193486 24.1007 -0.132116 25.2941 0.0541999 26.4634C0.240516 27.6328 0.758181 28.7377 1.55618 29.6694C2.35417 30.601 3.40496 31.3272 4.60497 31.7764C5.80498 32.2256 7.11281 32.3823 8.39955 32.231C9.63316 32.0831 10.821 31.7089 11.8913 31.131C13.3188 30.401 14.6913 29.341 16.2286 27.811C17.7658 29.341 19.1713 30.401 20.5658 31.141C21.9069 31.8578 23.4255 32.2535 24.9799 32.291C26.78 32.2978 28.522 31.7112 29.8843 30.6397C31.2466 29.5681 32.1372 28.0839 32.3917 26.461C32.6858 25.2947 32.5863 24.0748 32.1062 22.961V22.971ZM16.3384 24.631C14.4497 22.431 13.2199 20.411 12.8027 18.681C12.6298 18.0399 12.5925 17.3747 12.6929 16.721C12.7697 16.211 12.9784 15.761 13.2639 15.381C13.9227 14.511 15.0756 13.971 16.3384 13.971C16.938 13.9543 17.5329 14.0735 18.0695 14.3178C18.6061 14.5622 19.0677 14.924 19.4129 15.371C19.6984 15.771 19.907 16.211 19.9729 16.721C20.0827 17.301 20.0388 17.971 19.8631 18.681C19.4458 20.381 18.216 22.421 16.3384 24.631ZM30.3274 26.111C30.2026 26.9349 29.843 27.7147 29.2843 28.3727C28.7256 29.0306 27.9873 29.5437 27.1431 29.861C26.3086 30.181 25.3862 30.271 24.4858 30.181C23.6074 30.081 22.729 29.821 21.8286 29.341C20.3336 28.4995 18.9893 27.4539 17.8427 26.241C20.1486 23.641 21.5431 21.271 22.0701 19.161C22.3227 18.161 22.3556 17.261 22.2458 16.431C22.1087 15.6442 21.7866 14.8938 21.3015 14.231C20.7477 13.5122 20.0084 12.9284 19.1487 12.5308C18.289 12.1333 17.3353 11.9342 16.3713 11.951C14.3399 11.951 12.5282 12.811 11.4301 14.221C10.9358 14.8821 10.6164 15.6385 10.4968 16.431C10.3541 17.271 10.387 18.201 10.6725 19.161C11.1995 21.271 12.627 23.671 14.8999 26.261C13.7728 27.4971 12.4254 28.5518 10.9141 29.381C10.0027 29.861 9.13523 30.111 8.2568 30.211C6.89071 30.3703 5.51077 30.0322 4.41692 29.2701C3.32306 28.508 2.60372 27.3834 2.41523 26.141C2.30543 25.341 2.38229 24.541 2.73367 23.641C2.84347 23.321 3.00818 23.001 3.18386 22.621C3.42543 22.101 3.71092 21.561 3.98543 21.021L4.02935 20.951C6.40112 16.181 8.99249 11.311 11.6827 6.54096L11.7925 6.34096C12.067 5.86096 12.3415 5.35096 12.627 4.87096C12.9125 4.36096 13.2199 3.87096 13.6152 3.47096C13.9574 3.09898 14.3849 2.79983 14.8678 2.59458C15.3506 2.38932 15.8769 2.28295 16.4097 2.28295C16.9426 2.28295 17.4689 2.38932 17.9517 2.59458C18.4345 2.79983 18.8621 3.09898 19.2043 3.47096C19.5886 3.87096 19.907 4.36096 20.1925 4.87096C20.467 5.35096 20.7415 5.87096 21.027 6.34096L21.1368 6.54096C23.816 11.311 26.4074 16.181 28.8231 20.951L28.856 20.981C29.1415 21.501 29.3831 22.081 29.6576 22.581C29.8333 22.971 30.009 23.281 30.1188 23.611C30.3274 24.511 30.4372 25.311 30.3274 26.111V26.111ZM45.6121 24.411C44.7847 24.422 43.9652 24.2632 43.2143 23.9464C42.4635 23.6296 41.8006 23.1629 41.2748 22.581C40.0934 21.3409 39.4664 19.742 39.518 18.101C39.4999 16.4242 40.1472 14.7978 41.3407 13.521C41.8928 12.9316 42.5801 12.4596 43.3541 12.1382C44.1281 11.8169 44.9701 11.654 45.8207 11.661C46.6211 11.641 47.4139 11.8068 48.1246 12.1426C48.8353 12.4785 49.4406 12.9735 49.8835 13.581L49.9933 12.011H53.1995V24.091H49.9823L49.8725 22.331C49.4159 22.9796 48.7848 23.5112 48.0391 23.8753C47.2935 24.2393 46.458 24.4237 45.6121 24.411V24.411ZM46.4466 21.531C47.0835 21.531 47.6435 21.371 48.1705 21.081C48.6537 20.761 49.049 20.341 49.3564 19.831C49.6309 19.321 49.7737 18.711 49.7737 18.031C49.8165 17.4404 49.6902 16.8497 49.4073 16.3169C49.1244 15.784 48.6944 15.3272 48.1595 14.991C47.6456 14.6993 47.0522 14.5447 46.4466 14.5447C45.841 14.5447 45.2476 14.6993 44.7337 14.991C44.2505 15.311 43.8552 15.731 43.5478 16.241C43.2574 16.8034 43.1146 17.4196 43.1305 18.041C43.0877 18.6316 43.214 19.2222 43.4969 19.755C43.7798 20.2879 44.2097 20.7448 44.7446 21.081C45.2607 21.371 45.8207 21.531 46.4466 21.531ZM58.6897 8.75096C58.6897 9.10096 58.6239 9.42096 58.4482 9.68096C58.2725 9.93096 58.0309 10.161 57.7125 10.321C57.3941 10.481 57.0537 10.541 56.7023 10.541C56.3509 10.541 55.9995 10.481 55.6811 10.321C55.38 10.1683 55.1267 9.94795 54.9454 9.68096C54.7754 9.39609 54.692 9.07502 54.7039 8.75096C54.7039 8.39096 54.7807 8.07096 54.9454 7.82096C55.1211 7.52096 55.3737 7.34096 55.6811 7.18096C55.9995 7.02096 56.3399 6.95096 56.7023 6.95096C57.0518 6.94363 57.3974 7.01901 57.7054 7.16975C58.0133 7.3205 58.273 7.54143 58.4592 7.81096C58.619 8.10251 58.6981 8.4252 58.6897 8.75096V8.75096ZM54.9564 24.051V11.991H58.4482V24.071H54.9454L54.9564 24.051ZM67.7815 15.151V15.191C67.6168 15.121 67.3972 15.091 67.2325 15.061C67.0129 15.021 66.8372 15.021 66.6286 15.021C65.6513 15.021 64.9156 15.281 64.4325 15.821C63.9054 16.371 63.6639 17.141 63.6639 18.131V24.061H60.1611V11.981H63.3784L63.4882 13.811C63.8395 13.171 64.2568 12.691 64.8497 12.331C65.4395 11.9812 66.1339 11.8065 66.8372 11.831C67.0897 11.831 67.3313 11.851 67.5399 11.891C67.6497 11.921 67.7156 11.921 67.7815 11.951V15.151V15.151ZM69.187 24.051V7.03096H72.6788V13.531C73.1729 12.951 73.7329 12.501 74.4356 12.151C75.5482 11.6542 76.812 11.5133 78.0233 11.751C79.2345 11.9886 80.3225 12.591 81.1117 13.461C82.2957 14.7036 82.9229 16.3065 82.8686 17.951C82.8866 19.6278 82.2394 21.2541 81.0458 22.531C80.4937 23.1203 79.8065 23.5923 79.0324 23.9137C78.2584 24.235 77.4165 24.398 76.5658 24.391C75.7654 24.4109 74.9726 24.2452 74.2619 23.9093C73.5512 23.5734 72.946 23.0785 72.5031 22.471L72.3933 24.041L69.187 24.071V24.051ZM75.9399 21.531C76.5658 21.531 77.1258 21.371 77.6529 21.081C78.136 20.761 78.5313 20.341 78.8388 19.831C79.1243 19.321 79.256 18.711 79.256 18.031C79.256 17.361 79.1243 16.751 78.8388 16.241C78.5504 15.7492 78.1453 15.3222 77.6529 14.991C77.1389 14.6993 76.5455 14.5447 75.9399 14.5447C75.3344 14.5447 74.741 14.6993 74.227 14.991C73.7329 15.311 73.3486 15.731 73.0301 16.241C72.7398 16.8034 72.5969 17.4196 72.6129 18.041C72.5701 18.6316 72.6963 19.2222 72.9792 19.755C73.2622 20.2879 73.6921 20.7448 74.227 21.081C74.7431 21.371 75.3031 21.531 75.9399 21.531ZM84.1862 24.061V11.981H87.4035L87.5133 13.551C87.9176 12.9491 88.4911 12.4566 89.1745 12.1243C89.8578 11.7921 90.6263 11.6321 91.4003 11.661C92.2855 11.647 93.1554 11.8711 93.9015 12.3051C94.6475 12.7391 95.2365 13.3637 95.5948 14.101C95.9792 14.861 96.1878 15.801 96.1878 16.851V24.091H92.685V17.271C92.685 16.431 92.4764 15.771 92.0591 15.281C91.6419 14.801 91.0709 14.541 90.3462 14.541C89.8192 14.541 89.358 14.641 88.9517 14.861C88.5674 15.091 88.249 15.381 88.0074 15.791C87.7631 16.2054 87.642 16.6708 87.656 17.141V24.061H84.1862V24.061ZM97.9337 24.061V7.02096H101.436V13.521C101.911 12.9377 102.528 12.4632 103.239 12.1352C103.95 11.8071 104.735 11.6344 105.532 11.631C106.36 11.6199 107.179 11.7787 107.93 12.0955C108.681 12.4123 109.344 12.879 109.869 13.461C111.045 14.7035 111.668 16.3015 111.615 17.941C111.634 19.6179 110.987 21.2446 109.792 22.521C109.24 23.1103 108.553 23.5823 107.779 23.9037C107.005 24.225 106.163 24.388 105.312 24.381C104.512 24.4009 103.719 24.2352 103.009 23.8993C102.298 23.5634 101.693 23.0685 101.25 22.461L101.151 24.031L97.9337 24.061V24.061ZM104.72 21.531C105.356 21.531 105.916 21.371 106.432 21.081C106.927 20.761 107.311 20.341 107.629 19.831C107.904 19.321 108.047 18.711 108.047 18.031C108.089 17.4404 107.963 16.8497 107.68 16.3169C107.397 15.784 106.967 15.3272 106.432 14.991C105.919 14.6993 105.325 14.5447 104.72 14.5447C104.114 14.5447 103.521 14.6993 103.007 14.991C102.523 15.311 102.128 15.731 101.821 16.241C101.514 16.7984 101.371 17.4183 101.403 18.041C101.361 18.6316 101.487 19.2222 101.77 19.755C102.053 20.2879 102.483 20.7448 103.018 21.081C103.534 21.371 104.061 21.531 104.72 21.531Z" fill="#FF385C"/>
</svg>
